<svg id="Capa_1" data-name="Capa 1" xmlns="http://www.w3.org/2000/svg" viewBox="0 0 512 512"><defs><style>.cls-1,.cls-2,.cls-4{fill:#a7f6f8;}.cls-1{opacity:0.5;}.cls-1,.cls-2{isolation:isolate;}.cls-2,.cls-3{opacity:0.2;}</style></defs><title>Country</title><polygon class="cls-1" points="498.86 328.04 498.86 471.4 467 503.26 467 359.9 498.86 328.04"/><polygon class="cls-1" points="411.25 328.04 498.86 328.04 467 359.9 323.64 359.9 355.5 328.04 411.25 328.04"/><polygon class="cls-2" points="467 359.9 467 503.26 323.64 503.26 323.64 415.65 323.64 359.9 467 359.9"/><polygon class="cls-1" points="498.86 9.56 498.86 152.92 467 184.78 467 41.42 498.86 9.56"/><polygon class="cls-1" points="498.86 9.56 467 41.42 323.64 41.42 355.5 9.56 498.86 9.56"/><polygon class="cls-2" points="467 41.42 467 184.78 411.25 184.78 323.64 184.78 323.64 97.07 323.64 41.42 467 41.42"/><polygon class="cls-1" points="188.25 9.56 156.39 41.42 13.03 41.42 44.89 9.56 188.25 9.56"/><polygon class="cls-1" points="188.25 97.07 188.25 152.92 156.39 184.78 156.39 41.42 188.25 9.56 188.25 97.07"/><polygon class="cls-1" points="100.64 328.04 188.25 328.04 156.39 359.9 13.03 359.9 44.89 328.04 100.64 328.04"/><polygon class="cls-1" points="188.25 415.65 188.25 471.4 156.39 503.26 156.39 359.9 188.25 328.04 188.25 415.65"/><g class="cls-3"><rect class="cls-4" x="13.03" y="359.9" width="143.36" height="143.36"/><polygon class="cls-4" points="156.39 41.42 156.39 184.78 100.64 184.78 13.03 184.78 13.03 41.42 156.39 41.42"/></g><path class="cls-4" d="M156.39,192.75H13a8,8,0,0,1-8-8V41.42a8,8,0,0,1,8-8H156.39a8,8,0,0,1,8,8V184.78A8,8,0,0,1,156.39,192.75ZM21,176.82H148.43V49.39H21Z"/><path class="cls-4" d="M188.25,160.89a8,8,0,0,1-8-8V17.53H44.89a8,8,0,1,1,0-15.93H188.25a8,8,0,0,1,8,8V152.92A8,8,0,0,1,188.25,160.89Z"/><path class="cls-4" d="M13,49.39A8.47,8.47,0,0,1,7.35,47.1a8,8,0,0,1,0-11.25L39.21,4A8,8,0,0,1,50.46,15.24L18.6,47.1A8,8,0,0,1,13,49.39Z"/><path class="cls-4" d="M156.39,192.75a8.42,8.42,0,0,1-5.67-2.29,8,8,0,0,1,0-11.25l31.85-31.86a8,8,0,0,1,11.25,11.25L162,190.46A8,8,0,0,1,156.39,192.75Z"/><path class="cls-4" d="M156.39,49.39a8.42,8.42,0,0,1-5.67-2.29,8,8,0,0,1,0-11.25L182.57,4a8,8,0,0,1,11.25,11.25L162,47.1A8,8,0,0,1,156.39,49.39Z"/><path class="cls-4" d="M156.39,511.23H13a8,8,0,0,1-8-8V359.9a8,8,0,0,1,8-8H156.39a8,8,0,0,1,8,8V503.26A8,8,0,0,1,156.39,511.23ZM21,495.3H148.43V367.87H21Z"/><path class="cls-4" d="M188.25,479.37a8,8,0,0,1-8-8V336H44.89a8,8,0,1,1,0-15.93H188.25a8,8,0,0,1,8,8V471.4A8,8,0,0,1,188.25,479.37Z"/><path class="cls-4" d="M13,367.87a8.47,8.47,0,0,1-5.68-2.29,8,8,0,0,1,0-11.25l31.86-31.86a8,8,0,0,1,11.25,11.25L18.6,365.58A8,8,0,0,1,13,367.87Z"/><path class="cls-4" d="M156.39,511.23a8.42,8.42,0,0,1-5.67-2.29,8,8,0,0,1,0-11.25l31.85-31.86a8,8,0,0,1,11.25,11.25L162,508.94A8,8,0,0,1,156.39,511.23Z"/><path class="cls-4" d="M156.39,367.87a8.42,8.42,0,0,1-5.67-2.29,8,8,0,0,1,0-11.25l31.85-31.86a8,8,0,0,1,11.25,11.25L162,365.58A8,8,0,0,1,156.39,367.87Z"/><path class="cls-4" d="M100.64,351.94a8,8,0,0,1-8-8V288.22a8,8,0,0,1,15.93,0V344A8,8,0,0,1,100.64,351.94Z"/><path class="cls-4" d="M100.64,312.11a32,32,0,0,1-31.86-31.85V248.4a31.86,31.86,0,0,1,63.72,0v31.86A31.88,31.88,0,0,1,100.64,312.11Zm0-79.64A16,16,0,0,0,84.71,248.4v31.86a15.93,15.93,0,1,0,31.86,0V248.4A16,16,0,0,0,100.64,232.47Z"/><path class="cls-4" d="M100.64,248.4a8,8,0,0,1-8-8V192.65a8,8,0,1,1,15.93,0v47.78A8,8,0,0,1,100.64,248.4Z"/><path class="cls-4" d="M228,423.62H172.22a8,8,0,1,1,0-15.93H228a8,8,0,1,1,0,15.93Z"/><path class="cls-4" d="M267.79,447.51H235.94a31.86,31.86,0,0,1,0-63.72h31.85a31.86,31.86,0,0,1,0,63.72Zm-31.85-47.79a15.93,15.93,0,0,0,0,31.86h31.85a15.93,15.93,0,1,0,0-31.86Z"/><path class="cls-4" d="M323.54,423.62H275.76a8,8,0,1,1,0-15.93h47.78a8,8,0,1,1,0,15.93Z"/><path class="cls-4" d="M228,105H172.22a8,8,0,1,1,0-15.93H228A8,8,0,1,1,228,105Z"/><path class="cls-4" d="M267.79,128.93H235.94a31.86,31.86,0,1,1,0-63.72h31.85a31.86,31.86,0,0,1,0,63.72ZM235.94,81.14a15.93,15.93,0,0,0,0,31.86h31.85a15.93,15.93,0,1,0,0-31.86Z"/><path class="cls-4" d="M323.54,105H275.76a8,8,0,1,1,0-15.93h47.78a8,8,0,1,1,0,15.93Z"/><path class="cls-4" d="M466.91,192.75H323.54a8,8,0,0,1-8-8V41.42a8,8,0,0,1,8-8H466.91a8,8,0,0,1,8,8V184.78A7.93,7.93,0,0,1,466.91,192.75Zm-135.4-15.93H458.94V49.39H331.51Z"/><path class="cls-4" d="M498.76,160.89a8,8,0,0,1-8-8V17.53H355.4a8,8,0,0,1,0-15.93H498.76a8,8,0,0,1,8,8V152.92A7.93,7.93,0,0,1,498.76,160.89Z"/><path class="cls-4" d="M323.54,49.39a8.42,8.42,0,0,1-5.67-2.29,8,8,0,0,1,0-11.25L349.73,4A8,8,0,0,1,361,15.24L329.12,47.1A7.83,7.83,0,0,1,323.54,49.39Z"/><path class="cls-4" d="M466.91,192.75a8.43,8.43,0,0,1-5.68-2.29,8,8,0,0,1,0-11.25l31.86-31.86a8,8,0,0,1,11.25,11.25l-31.86,31.86A7.83,7.83,0,0,1,466.91,192.75Z"/><path class="cls-4" d="M466.91,49.39a8.43,8.43,0,0,1-5.68-2.29,8,8,0,0,1,0-11.25L493.09,4a8,8,0,0,1,11.25,11.25L472.48,47.1A7.83,7.83,0,0,1,466.91,49.39Z"/><path class="cls-4" d="M466.91,511.23H323.54a8,8,0,0,1-8-8V359.9a8,8,0,0,1,8-8H466.91a8,8,0,0,1,8,8V503.26A7.93,7.93,0,0,1,466.91,511.23ZM331.51,495.3H458.94V367.87H331.51Z"/><path class="cls-4" d="M498.76,479.37a8,8,0,0,1-8-8V336H355.4a8,8,0,0,1,0-15.93H498.76a8,8,0,0,1,8,8V471.4A7.93,7.93,0,0,1,498.76,479.37Z"/><path class="cls-4" d="M323.54,367.87a8.42,8.42,0,0,1-5.67-2.29,8,8,0,0,1,0-11.25l31.86-31.86A8,8,0,0,1,361,333.72l-31.86,31.86A7.83,7.83,0,0,1,323.54,367.87Z"/><path class="cls-4" d="M466.91,511.23a8.43,8.43,0,0,1-5.68-2.29,8,8,0,0,1,0-11.25l31.86-31.86a8,8,0,0,1,11.25,11.25l-31.86,31.86A7.83,7.83,0,0,1,466.91,511.23Z"/><path class="cls-4" d="M466.91,367.87a8.43,8.43,0,0,1-5.68-2.29,8,8,0,0,1,0-11.25l31.86-31.86a8,8,0,0,1,11.25,11.25l-31.86,31.86A7.83,7.83,0,0,1,466.91,367.87Z"/><path class="cls-4" d="M411.15,351.94a8,8,0,0,1-8-8V288.22a8,8,0,0,1,15.93,0V344A7.93,7.93,0,0,1,411.15,351.94Z"/><path class="cls-4" d="M411.15,312.11a31.94,31.94,0,0,1-31.85-31.85V248.4a31.86,31.86,0,1,1,63.71,0v31.86A31.81,31.81,0,0,1,411.15,312.11Zm0-79.64a16,16,0,0,0-15.92,15.93v31.86a15.93,15.93,0,1,0,31.85,0V248.4A15.91,15.91,0,0,0,411.15,232.47Z"/><path class="cls-4" d="M411.15,248.4a8,8,0,0,1-8-8V192.65a8,8,0,1,1,15.93,0v47.78A7.93,7.93,0,0,1,411.15,248.4Z"/></svg>