<svg id="Capa_1" data-name="Capa 1" xmlns="http://www.w3.org/2000/svg" viewBox="0 0 512 512"><defs><style>.cls-1,.cls-3,.cls-4{fill:#a7f6f8;}.cls-1,.cls-5{opacity:0.2;}.cls-1,.cls-4{isolation:isolate;}.cls-2,.cls-4{opacity:0.5;}</style></defs><title>create</title><polygon class="cls-1" points="487.04 418.02 502.96 473.76 184.42 473.76 272.02 370.24 295.91 386.16 375.55 306.53 487.04 418.02"/><g class="cls-2"><polygon class="cls-3" points="487.04 418.02 375.55 306.53 359.62 322.45 463.15 425.98 475.49 473.76 502.96 473.76 487.04 418.02"/></g><path class="cls-4" d="M503.36,286.62v23.89a27.87,27.87,0,0,1-55.74,0V286.62a27.87,27.87,0,0,0,55.74,0Z"/><g class="cls-5"><path class="cls-3" d="M503.36,286.62a27.87,27.87,0,1,1-27.87-27.88A27.95,27.95,0,0,1,503.36,286.62Z"/><circle class="cls-3" cx="403.82" cy="246.8" r="19.91"/><path class="cls-3" d="M312.73,301.65l-90.09-90.09-22.5-22.5L110.06,99s62.71,24.09,112.18,67.89c4,3.49,7.87,7.17,11.65,10.95s7.37,7.67,11,11.65C288.64,238.94,312.73,301.65,312.73,301.65Z"/></g><g class="cls-2"><path class="cls-3" d="M262.06,172.14l-17.32,17.32c-3.48-4-7.17-7.86-11-11.65s-7.66-7.36-11.65-10.95l17.43-17.22Z"/><path class="cls-3" d="M36.79,397.41a15.91,15.91,0,0,1-22.5-22.49L200.14,189.06l22.5,22.5Z"/></g><path class="cls-3" d="M14.29,382.78a8.42,8.42,0,0,1-5.67-2.29,8,8,0,0,1,0-11.25L194.47,183.39a8,8,0,0,1,11.25,11.25L19.87,380.49A7.63,7.63,0,0,1,14.29,382.78Z"/><path class="cls-3" d="M36.79,405.38a8.47,8.47,0,0,1-5.68-2.29,8,8,0,0,1,0-11.25L217,206a8,8,0,0,1,11.25,11.24L42.46,403A8.09,8.09,0,0,1,36.79,405.38Z"/><path class="cls-3" d="M25.54,410A23.9,23.9,0,0,1,8.62,369.14a8,8,0,0,1,11.25,11.25,8,8,0,0,0,11.24,11.25,8,8,0,0,1,11.25,11.25A23.19,23.19,0,0,1,25.54,410Z"/><path class="cls-3" d="M312.73,309.61a8.38,8.38,0,0,1-5.67-2.29L104.38,104.55A8,8,0,0,1,115.63,93.3L318.31,296a8,8,0,0,1,0,11.24A7.69,7.69,0,0,1,312.73,309.61Z"/><path class="cls-3" d="M312.73,309.61a8,8,0,0,1-7.46-5.07c-.3-.7-28.18-72.27-77-121.15s-120.35-76.75-121.15-77a7.94,7.94,0,0,1,5.67-14.83c3.09,1.19,75.36,29.36,126.63,80.63S318.8,295.78,320,298.76A7.92,7.92,0,0,1,315.42,309,6.36,6.36,0,0,1,312.73,309.61Z"/><path class="cls-3" d="M222.24,174.83a8.42,8.42,0,0,1-5.67-2.29,8,8,0,0,1,0-11.25l17.22-17.22A8,8,0,0,1,245,155.32l-17.12,17.22A8.26,8.26,0,0,1,222.24,174.83Z"/><path class="cls-3" d="M262.06,180.1a8.38,8.38,0,0,1-5.67-2.29l-22.5-22.49a8,8,0,0,1,11.25-11.25l22.5,22.49a7.92,7.92,0,0,1-5.58,13.54Z"/><path class="cls-3" d="M244.74,197.32a8.41,8.41,0,0,1-5.67-2.28,8,8,0,0,1,0-11.25l17.22-17.23a8,8,0,0,1,11.25,11.25L250.32,195A7.86,7.86,0,0,1,244.74,197.32Z"/><path class="cls-3" d="M184.42,481.73a8,8,0,0,1-6.08-13.14l87.6-103.53a8,8,0,0,1,12.15,10.35l-87.6,103.53A8.27,8.27,0,0,1,184.42,481.73Z"/><path class="cls-3" d="M295.81,394.13a7.74,7.74,0,0,1-4.38-1.3l-23.89-15.92a8,8,0,0,1,8.86-13.24l23.89,15.92a7.91,7.91,0,0,1,2.19,11.05A8.17,8.17,0,0,1,295.81,394.13Z"/><path class="cls-3" d="M295.91,394.13a8.47,8.47,0,0,1-5.68-2.29,8,8,0,0,1,0-11.25L369.87,301a8,8,0,0,1,11.25,11.25l-79.64,79.64A8,8,0,0,1,295.91,394.13Z"/><path class="cls-3" d="M487,426a8.42,8.42,0,0,1-5.68-2.29L369.87,312.2A8,8,0,0,1,381.12,301L492.61,412.44A7.92,7.92,0,0,1,487,426Z"/><path class="cls-3" d="M502.87,481.73A8,8,0,0,1,495.2,476l-15.93-55.75a8,8,0,1,1,15.33-4.38l15.93,55.75a8,8,0,0,1-5.47,9.85A7.78,7.78,0,0,1,502.87,481.73Z"/><path class="cls-3" d="M343.69,306.53a8,8,0,0,1-8-8V250.78a8,8,0,1,1,15.92,0v47.78A8,8,0,0,1,343.69,306.53Z"/><path class="cls-3" d="M303.87,338.38H256.09a8,8,0,0,1,0-15.93h47.78a8,8,0,1,1,0,15.93Z"/><path class="cls-3" d="M475.49,322.45a35.84,35.84,0,1,1,35.84-35.83A35.94,35.94,0,0,1,475.49,322.45Zm0-55.74a19.91,19.91,0,1,0,19.91,19.91A20,20,0,0,0,475.49,266.71Z"/><path class="cls-3" d="M475.49,346.35a36,36,0,0,1-35.84-35.84,8,8,0,0,1,15.93,0,19.91,19.91,0,1,0,39.82,0,8,8,0,0,1,15.93,0A36,36,0,0,1,475.49,346.35Z"/><path class="cls-3" d="M447.62,318.47a8,8,0,0,1-8-8V286.62a8,8,0,1,1,15.93,0v23.89A8,8,0,0,1,447.62,318.47Z"/><path class="cls-3" d="M503.36,318.47a8,8,0,0,1-8-8V286.62a8,8,0,1,1,15.93,0v23.89A8,8,0,0,1,503.36,318.47Z"/><path class="cls-3" d="M403.82,274.67a27.87,27.87,0,1,1,27.87-27.87A28,28,0,0,1,403.82,274.67Zm0-39.82a11.95,11.95,0,1,0,11.94,12A12,12,0,0,0,403.82,234.85Z"/><path class="cls-3" d="M503,481.73H184.42a8,8,0,1,1,0-15.93H503a8,8,0,1,1,0,15.93Z"/><polygon class="cls-1" points="471.21 83.34 471.21 206.28 423.33 206.28 348.27 206.28 348.27 83.34 471.21 83.34"/><polygon class="cls-4" points="500.18 131.03 500.18 178.91 472.9 206.28 472.9 83.34 500.18 55.97 500.18 131.03"/><polygon class="cls-4" points="502.27 59.45 474.89 86.73 351.95 86.73 379.23 59.45 427.11 59.45 502.27 59.45"/><path class="cls-3" d="M472.9,213.05H350a6.88,6.88,0,0,1-6.87-6.87V83.34A6.88,6.88,0,0,1,350,76.48H472.9a6.88,6.88,0,0,1,6.87,6.86V206.28A6.86,6.86,0,0,1,472.9,213.05ZM356.73,199.42H466V90.11H356.73Z"/><path class="cls-3" d="M500.18,185.78a6.88,6.88,0,0,1-6.87-6.87V62.84H377.24a6.87,6.87,0,0,1,0-13.74H500.18A6.89,6.89,0,0,1,507.05,56V178.91A6.89,6.89,0,0,1,500.18,185.78Z"/><path class="cls-3" d="M350,90.11a7.1,7.1,0,0,1-4.88-2,6.8,6.8,0,0,1,0-9.65l27.28-27.28A6.83,6.83,0,1,1,382,60.85L354.74,88.12A6.45,6.45,0,0,1,350,90.11Z"/><path class="cls-3" d="M472.9,213.05a7.1,7.1,0,0,1-4.88-2,6.8,6.8,0,0,1,0-9.65l27.28-27.28a6.83,6.83,0,1,1,9.66,9.66l-27.28,27.27A6.45,6.45,0,0,1,472.9,213.05Z"/><path class="cls-3" d="M472.9,90.11a7.1,7.1,0,0,1-4.88-2,6.8,6.8,0,0,1,0-9.65L495.4,51.19a6.83,6.83,0,1,1,9.66,9.66L477.78,88.12A6.82,6.82,0,0,1,472.9,90.11Z"/></svg>