<svg id="Capa_1" data-name="Capa 1" xmlns="http://www.w3.org/2000/svg" viewBox="0 0 512 512"><defs><style>.cls-1,.cls-2,.cls-5,.cls-6{fill:#a7f6f8;}.cls-1,.cls-3{opacity:0.2;}.cls-1,.cls-2,.cls-3,.cls-5{isolation:isolate;}.cls-2,.cls-4{opacity:0.5;}.cls-3{fill:#fff;}.cls-5{opacity:0.3;}</style></defs><title>people</title><path class="cls-1" d="M470,278.3v24.2l-24.2-24.3s-13.9-.6-39.7,5.5c-27.2,6.4-56.1,2.6-56.1,2.6l-24,16.2V278.3a64.06,64.06,0,0,1,64-64h25c12.7,0,23.9,4.8,23.9,17.5l11.4,7.2C467.9,239,470,260.6,470,278.3Z"/><path class="cls-1" d="M470,326.4a72,72,0,0,1-144,.4V302.6l24-16.2s30.7-2.7,58.6-2.7,34.5-2.5,34.5-2.5L470,302.6Z"/><path class="cls-1" d="M185.1,326.4a72,72,0,0,1-144,.4V302.6l24-16.2a185,185,0,0,0,52,8c27.9,0,44-8,44-8l24,16.2Z"/><path class="cls-2" d="M161.1,286.3a65,65,0,0,1-8,3v37.1a72,72,0,0,1-56,70.1,70.07,70.07,0,0,0,16,1.8,72,72,0,0,0,72-71.9V302.6Z"/><path class="cls-3" d="M113.1,422.3l-16,8-16-8V390.8a72,72,0,0,0,64,0v31.5l-16,8Z"/><path class="cls-1" d="M129.1,430.3l16-8h24a39.93,39.93,0,0,1,40,40v24a8,8,0,0,1-8,8H25.1a8,8,0,0,1-8-8v-24a40,40,0,0,1,40-40h24l16,8,16-8Z"/><path class="cls-2" d="M169.1,422.3h-24l-1.3.7a39.79,39.79,0,0,1,33.3,39.3v24a8,8,0,0,1-8,8h32a8,8,0,0,0,8-8v-24A40,40,0,0,0,169.1,422.3Z"/><path class="cls-3" d="M400.8,398.3a71.76,71.76,0,0,0,32-7.5v31.5l-16,8-16-8-16,8-16-8V390.9A73.05,73.05,0,0,0,400.8,398.3Z"/><path class="cls-1" d="M496.8,462.3v24a8,8,0,0,1-8,8h-176a7.9,7.9,0,0,1-8-8v-24a39.93,39.93,0,0,1,40-40h24l16,8,16-8,16,8,16-8h24A40,40,0,0,1,496.8,462.3Z"/><g class="cls-4"><path class="cls-5" d="M456.8,422.3h-24l-1.3.7a39.88,39.88,0,0,1,33.3,39.3v24a8,8,0,0,1-8,8h32a8,8,0,0,0,8-8v-24A40,40,0,0,0,456.8,422.3Z"/></g><g class="cls-4"><path class="cls-5" d="M440.8,277v49.5a72,72,0,0,1-56,70.1,70.71,70.71,0,0,0,16,1.8,72,72,0,0,0,72-71.9V300.2C460.5,284,450.8,278,440.8,277Z"/><path class="cls-6" d="M472.8,290.3v9.8c-15.5-20.3-26.9-24.7-40-23l24-33.4A75.7,75.7,0,0,1,472.8,290.3Z"/></g><g class="cls-4"><path class="cls-6" d="M426.1,243.7a76,76,0,0,1,12.8,25l18-25a76.21,76.21,0,0,0-60-29.4,79.33,79.33,0,0,0-15.6,1.6A76.8,76.8,0,0,1,426.1,243.7Z"/></g><path class="cls-1" d="M185.1,278.3v24.2l-24-16.2s-16.1,8-44,8a185,185,0,0,1-52-8l-24,16.2V278.3a63.93,63.93,0,0,1,64-64h48v32A32,32,0,0,1,185.1,278.3Z"/><path class="cls-2" d="M153.1,246.3v-32h-32v48c17.7,0,32,6.3,32,24v3a65,65,0,0,0,8-3l24,16.2V278.3A32,32,0,0,0,153.1,246.3Z"/><path class="cls-6" d="M17.1,470.3a8,8,0,0,1-8-8,48,48,0,0,1,48-48,8,8,0,0,1,0,16,32.09,32.09,0,0,0-32,32A8,8,0,0,1,17.1,470.3Z"/><path class="cls-6" d="M81.1,430.3h-24a8,8,0,0,1,0-16h24a8,8,0,0,1,0,16Z"/><path class="cls-6" d="M17.1,494.3a8,8,0,0,1-8-8v-24a8,8,0,0,1,16,0v24A8,8,0,0,1,17.1,494.3Z"/><path class="cls-6" d="M25.1,502.3a16,16,0,0,1-16-16c0-4.2,3.3-7.3,7.6-7.5,4.5-.4,7.9,3.3,8.4,7.5a8,8,0,0,1,0,16Z"/><path class="cls-6" d="M209.1,470.3a8,8,0,0,1-8-8,32.09,32.09,0,0,0-32-32,8,8,0,1,1,0-16,48,48,0,0,1,48,48A8,8,0,0,1,209.1,470.3Z"/><path class="cls-6" d="M169.1,430.3h-24a8,8,0,1,1,0-16h24a8,8,0,0,1,0,16Z"/><path class="cls-6" d="M209.1,494.3a8,8,0,0,1-8-8v-24a8,8,0,0,1,16,0v24A8,8,0,0,1,209.1,494.3Z"/><path class="cls-6" d="M201.1,502.3a8,8,0,1,1,0-16,8,8,0,0,1,16,0A16,16,0,0,1,201.1,502.3Z"/><path class="cls-6" d="M201.1,502.3H25.1a8,8,0,1,1,0-16h176a8,8,0,0,1,0,16Z"/><path class="cls-6" d="M81.1,430.3a8,8,0,0,1-8-8V390.8a8,8,0,0,1,16,0v31.5A8,8,0,0,1,81.1,430.3Z"/><path class="cls-6" d="M145.1,430.3a8,8,0,0,1-8-8V390.8a8,8,0,0,1,16,0v31.5A8,8,0,0,1,145.1,430.3Z"/><path class="cls-6" d="M113.1,406.3a80.11,80.11,0,0,1-80-80,8,8,0,0,1,16,0,64,64,0,0,0,128,0,8,8,0,0,1,16,0A80.11,80.11,0,0,1,113.1,406.3Z"/><path class="cls-6" d="M41.1,334.7a8,8,0,0,1-8-8V278.3a8,8,0,0,1,16,0v48.4A8,8,0,0,1,41.1,334.7Z"/><path class="cls-6" d="M185.1,334.3a8,8,0,0,1-8-8v-48a8,8,0,0,1,16,0v48A8,8,0,0,1,185.1,334.3Z"/><path class="cls-6" d="M185.1,286.3a8,8,0,0,1-8-8,24.07,24.07,0,0,0-24-24,8,8,0,1,1,0-16,40,40,0,0,1,40,40A8,8,0,0,1,185.1,286.3Z"/><path class="cls-6" d="M153.1,254.3a8,8,0,0,1-8-8v-32a8,8,0,0,1,16,0v32A8,8,0,0,1,153.1,254.3Z"/><path class="cls-6" d="M153.1,222.3h-48a8,8,0,1,1,0-16h48a8,8,0,0,1,0,16Z"/><path class="cls-6" d="M41.1,286.3a8,8,0,0,1-8-8,72.08,72.08,0,0,1,72-72,8,8,0,0,1,0,16,56,56,0,0,0-56,56A8,8,0,0,1,41.1,286.3Z"/><path class="cls-6" d="M185.1,310.5a7.7,7.7,0,0,1-4.5-1.4l-24-16.2a8,8,0,1,1,8.9-13.3l24,16.2a8,8,0,0,1,2.2,11.1A7.77,7.77,0,0,1,185.1,310.5Z"/><path class="cls-6" d="M117.1,302.3a192.82,192.82,0,0,1-54.5-8.4,8,8,0,1,1,5-15.2,177.14,177.14,0,0,0,49.5,7.6c25.4,0,40.3-7.1,40.5-7.2a8,8,0,0,1,7.1,14.4C163.9,293.8,146.6,302.3,117.1,302.3Z"/><path class="cls-6" d="M41.1,310.5a7.78,7.78,0,0,1-6.6-3.5,7.94,7.94,0,0,1,2.2-11.1l24-16.2A8,8,0,0,1,69.6,293l-24,16.2A8.36,8.36,0,0,1,41.1,310.5Z"/><path class="cls-6" d="M97.1,438.3a9.37,9.37,0,0,1-3.6-.8l-16-8a7.93,7.93,0,0,1-3.6-10.7,8,8,0,0,1,10.7-3.6l16,8a8,8,0,0,1-3.5,15.1Z"/><path class="cls-6" d="M97.1,438.3a8.08,8.08,0,0,1-7.2-4.4,7.88,7.88,0,0,1,3.6-10.7l16-8a8,8,0,0,1,7.1,14.3l-16,8A7.19,7.19,0,0,1,97.1,438.3Z"/><path class="cls-6" d="M129.1,438.3a8.08,8.08,0,0,1-7.2-4.4,7.88,7.88,0,0,1,3.6-10.7l16-8a8,8,0,0,1,7.1,14.3l-16,8A7.19,7.19,0,0,1,129.1,438.3Z"/><path class="cls-6" d="M129.1,438.3a9.37,9.37,0,0,1-3.6-.8l-16-8a7.93,7.93,0,0,1-3.6-10.7,8,8,0,0,1,10.7-3.6l16,8a8,8,0,0,1-3.5,15.1Z"/><path class="cls-6" d="M328.8,334a8,8,0,0,1-8-8V291.4a8,8,0,0,1,16,0V326A8,8,0,0,1,328.8,334Z"/><path class="cls-6" d="M472.8,334.3a8,8,0,0,1-8-8v-36a8,8,0,0,1,16,0v36A8,8,0,0,1,472.8,334.3Z"/><path class="cls-6" d="M472.8,298.3a8,8,0,0,1-8-8,68,68,0,0,0-136,0,8,8,0,0,1-16,0,84,84,0,0,1,168,0A8,8,0,0,1,472.8,298.3Z"/><path class="cls-6" d="M469.4,308.1A8.25,8.25,0,0,1,463,305c-19.2-25.1-27.4-22.4-49-15.1-19.9,6.7-47.1,15.9-94.4,8.4a8,8,0,1,1,2.6-15.8c43.4,6.8,68.5-1.6,86.8-7.8,26-8.7,41.9-12.1,66.8,20.5a8,8,0,0,1-1.5,11.2A8.32,8.32,0,0,1,469.4,308.1Z"/><path class="cls-6" d="M432.8,284.7a8.19,8.19,0,0,1-4.7-1.5,8,8,0,0,1-1.8-11.2l24-33a8,8,0,0,1,13,9.4l-24,33A8.2,8.2,0,0,1,432.8,284.7Z"/><path class="cls-6" d="M304.8,470.3a8,8,0,0,1-8-8,48,48,0,0,1,48-48,8,8,0,0,1,0,16,32.09,32.09,0,0,0-32,32A8,8,0,0,1,304.8,470.3Z"/><path class="cls-6" d="M368.8,430.3h-24a8,8,0,0,1,0-16h24a8,8,0,0,1,0,16Z"/><path class="cls-6" d="M304.8,494.3a8,8,0,0,1-8-8v-24a8,8,0,0,1,16,0v24A8,8,0,0,1,304.8,494.3Z"/><path class="cls-6" d="M312.8,502.3a16,16,0,0,1-16-16c0-4.2,3.3-7.3,7.6-7.5,4.4-.4,7.9,3.3,8.4,7.5a8,8,0,0,1,0,16Z"/><path class="cls-6" d="M496.8,470.3a8,8,0,0,1-8-8,32.09,32.09,0,0,0-32-32,8,8,0,0,1,0-16,48,48,0,0,1,48,48A8,8,0,0,1,496.8,470.3Z"/><path class="cls-6" d="M456.8,430.3h-24a8,8,0,0,1,0-16h24a8,8,0,0,1,0,16Z"/><path class="cls-6" d="M496.8,494.3a8,8,0,0,1-8-8v-24a8,8,0,0,1,16,0v24A8,8,0,0,1,496.8,494.3Z"/><path class="cls-6" d="M488.8,502.3a8,8,0,0,1,0-16,8,8,0,0,1,16,0A16,16,0,0,1,488.8,502.3Z"/><path class="cls-6" d="M488.8,502.3h-176a8,8,0,0,1,0-16h176a8,8,0,0,1,0,16Z"/><path class="cls-6" d="M368.8,430.3a8,8,0,0,1-8-8V390.8a8,8,0,0,1,16,0v31.5A8,8,0,0,1,368.8,430.3Z"/><path class="cls-6" d="M432.8,430.3a8,8,0,0,1-8-8V390.8a8,8,0,0,1,16,0v31.5A8,8,0,0,1,432.8,430.3Z"/><path class="cls-6" d="M400.8,406.3a80.11,80.11,0,0,1-80-80,8,8,0,0,1,16,0,64,64,0,0,0,128,0,8,8,0,0,1,16,0A80.11,80.11,0,0,1,400.8,406.3Z"/><path class="cls-6" d="M384.8,438.3a9.37,9.37,0,0,1-3.6-.8l-16-8a7.93,7.93,0,0,1-3.6-10.7,8,8,0,0,1,10.7-3.6l16,8a8,8,0,0,1-3.5,15.1Z"/><path class="cls-6" d="M384.8,438.3a8.08,8.08,0,0,1-7.2-4.4,7.88,7.88,0,0,1,3.6-10.7l16-8a8,8,0,0,1,7.1,14.3l-16,8A7.19,7.19,0,0,1,384.8,438.3Z"/><path class="cls-6" d="M416.8,438.3a8.08,8.08,0,0,1-7.2-4.4,7.88,7.88,0,0,1,3.6-10.7l16-8a8,8,0,0,1,7.1,14.3l-16,8A7.19,7.19,0,0,1,416.8,438.3Z"/><path class="cls-6" d="M416.8,438.3a9.37,9.37,0,0,1-3.6-.8l-16-8a7.93,7.93,0,0,1-3.6-10.7,8,8,0,0,1,10.7-3.6l16,8a8,8,0,0,1-3.5,15.1Z"/><path class="cls-6" d="M400.8,190.3a8,8,0,0,1-8-8V78.3a8,8,0,0,1,16,0v104A8,8,0,0,1,400.8,190.3Z"/><path class="cls-6" d="M400.8,86.3h-32a8,8,0,0,1,0-16h32a8,8,0,0,1,0,16Z"/><path class="cls-6" d="M112.8,190.3a8,8,0,0,1-8-8V78.3a8,8,0,0,1,16,0v104A8,8,0,0,1,112.8,190.3Z"/><path class="cls-6" d="M144.8,86.3h-32a8,8,0,0,1,0-16h32a8,8,0,0,1,0,16Z"/><polygon class="cls-1" points="305.8 44.2 305.8 167.7 257.7 167.7 182.3 167.7 182.3 44.2 305.8 44.2"/><polygon class="cls-2" points="334.9 92.2 334.9 140.3 307.5 167.8 307.5 44.2 334.9 16.8 334.9 92.2"/><polygon class="cls-2" points="337 20.2 309.5 47.7 186 47.7 213.4 20.2 261.5 20.2 337 20.2"/><path class="cls-6" d="M307.5,174.6H184a6.91,6.91,0,0,1-6.9-6.9V44.2a6.91,6.91,0,0,1,6.9-6.9H307.5a6.91,6.91,0,0,1,6.9,6.9V167.7A6.91,6.91,0,0,1,307.5,174.6ZM190.8,160.9H300.6V51.1H190.8Z"/><path class="cls-6" d="M334.9,147.2a6.91,6.91,0,0,1-6.9-6.9V23.7H211.3a6.9,6.9,0,0,1,0-13.8H334.8a6.91,6.91,0,0,1,6.9,6.9V140.3A6.77,6.77,0,0,1,334.9,147.2Z"/><path class="cls-6" d="M184,51.1a7.14,7.14,0,0,1-4.9-2,6.82,6.82,0,0,1,0-9.7L206.5,12a6.86,6.86,0,0,1,9.7,9.7L188.8,49.1A6.91,6.91,0,0,1,184,51.1Z"/><path class="cls-6" d="M307.5,174.6a7.14,7.14,0,0,1-4.9-2,6.82,6.82,0,0,1,0-9.7L330,135.5a6.86,6.86,0,1,1,9.7,9.7l-27.4,27.4A6.73,6.73,0,0,1,307.5,174.6Z"/><path class="cls-6" d="M307.5,51.1a7.14,7.14,0,0,1-4.9-2,6.82,6.82,0,0,1,0-9.7L330,12a6.86,6.86,0,1,1,9.7,9.7L312.3,49.1A6.73,6.73,0,0,1,307.5,51.1Z"/></svg>