<svg id="Capa_1" data-name="Capa 1" xmlns="http://www.w3.org/2000/svg" viewBox="0 0 512 512"><defs><style>.cls-1,.cls-2,.cls-4{fill:#a7f6f8;}.cls-1{opacity:0.3;}.cls-1,.cls-2{isolation:isolate;}.cls-2,.cls-5{opacity:0.5;}.cls-3{opacity:0.8;}</style></defs><title>Post</title><path class="cls-1" d="M184.05,466h160a16,16,0,0,1,16,16v8h-208v-8a15.92,15.92,0,0,1,16-16Z"/><polygon class="cls-2" points="312.05 402 328.05 466 184.05 466 200.05 402 312.05 402"/><g class="cls-3"><path class="cls-4" d="M101,282.4a12,12,0,0,1-17,0,12.2,12.2,0,0,1,0-17l75.1-75.1.3-.2,17,17Z"/><path class="cls-4" d="M199.05,150.5l17,17L198.35,185a92.54,92.54,0,0,0-7.9-9,90.89,90.89,0,0,0-9-7.9Z"/></g><path class="cls-2" d="M198.35,185c22.2,29.3,17.6,61.7,17.6,61.7L176.35,207l-17-17-39.6-39.6s32.4-4.6,61.6,17.5a92.54,92.54,0,0,1,9,7.9A82.1,82.1,0,0,1,198.35,185Z"/><g class="cls-5"><rect class="cls-4" x="256.05" y="98" width="216" height="240"/><path class="cls-4" d="M256.05,98V338h-216V98ZM216,246.6s4.6-32.4-17.6-61.7L216,167.4l-17-17L181.45,168c-29.2-22.2-61.6-17.5-61.6-17.5l39.6,39.6-.3.2-75.1,75.1a12.2,12.2,0,0,0,0,17,12,12,0,0,0,17,0l75.4-75.4Z"/></g><path class="cls-1" d="M504.05,50V370H8.05V50a16,16,0,0,1,16-16h464A16,16,0,0,1,504.05,50Zm-32,288V66h-432V338h432Z"/><path class="cls-4" d="M64.25,90a8,8,0,0,1,0-16h.1a8,8,0,1,1-.1,16Z"/><path class="cls-4" d="M88.25,90a8,8,0,0,1,0-16h.1a8,8,0,1,1-.1,16Z"/><path class="cls-4" d="M112.25,90a8,8,0,0,1,0-16h.1a8,8,0,1,1-.1,16Z"/><path class="cls-4" d="M256.25,390a8,8,0,0,1,0-16h.1a8,8,0,1,1-.1,16Z"/><path class="cls-4" d="M488.05,410h-464a24.07,24.07,0,0,1-24-24V50a24.07,24.07,0,0,1,24-24h464a24.07,24.07,0,0,1,24,24V386A24.07,24.07,0,0,1,488.05,410ZM24.05,42a8,8,0,0,0-8,8V386a8,8,0,0,0,8,8h464a8,8,0,0,0,8-8V50a8,8,0,0,0-8-8Z"/><path class="cls-4" d="M184.05,474a12.25,12.25,0,0,1-1.9-.2,8,8,0,0,1-5.8-9.7l16-64a8,8,0,0,1,15.5,3.9l-16,64A8.1,8.1,0,0,1,184.05,474Z"/><path class="cls-4" d="M328.05,474a8.08,8.08,0,0,1-7.8-6.1l-16-64a8,8,0,1,1,15.5-3.9l16,64a8,8,0,0,1-5.8,9.7A6.28,6.28,0,0,1,328.05,474Z"/><path class="cls-4" d="M152.05,490a8,8,0,0,1-8-8,24.07,24.07,0,0,1,24-24,8,8,0,0,1,0,16,8,8,0,0,0-8,8A8,8,0,0,1,152.05,490Z"/><path class="cls-4" d="M360.05,490a8,8,0,0,1-8-8,8,8,0,0,0-8-8,8,8,0,1,1,0-16,24.07,24.07,0,0,1,24,24A8,8,0,0,1,360.05,490Z"/><path class="cls-4" d="M344.05,474h-176a8,8,0,1,1,0-16h176a8,8,0,0,1,0,16Z"/><path class="cls-4" d="M152.05,498a8,8,0,0,1-8-8v-8a8,8,0,0,1,16,0v8A8,8,0,0,1,152.05,498Z"/><path class="cls-4" d="M360.05,498h-208a8,8,0,1,1,0-16h208a8,8,0,0,1,0,16Z"/><path class="cls-4" d="M360.05,498a8,8,0,0,1-8-8v-8a8,8,0,0,1,16,0v8A8,8,0,0,1,360.05,498Z"/><path class="cls-4" d="M248.05,338V98h16V338Z"/><path class="cls-4" d="M376.05,146h-80a8,8,0,0,1,0-16h80a8,8,0,0,1,0,16Z"/><path class="cls-4" d="M432.05,146h-24a8,8,0,1,1,0-16h24a8,8,0,0,1,0,16Z"/><path class="cls-4" d="M336.05,178h-40a8,8,0,0,1,0-16h40a8,8,0,0,1,0,16Z"/><path class="cls-4" d="M432.05,178h-64a8,8,0,1,1,0-16h64a8,8,0,0,1,0,16Z"/><path class="cls-4" d="M432.05,210h-136a8,8,0,0,1,0-16h136a8,8,0,0,1,0,16Z"/><path class="cls-4" d="M312.05,242h-16a8,8,0,1,1,0-16h16a8,8,0,0,1,0,16Z"/><path class="cls-4" d="M432.05,242h-88a8,8,0,1,1,0-16h88a8,8,0,0,1,0,16Z"/><path class="cls-4" d="M376.05,274h-80a8,8,0,1,1,0-16h80a8,8,0,0,1,0,16Z"/><path class="cls-4" d="M432.05,274h-24a8,8,0,1,1,0-16h24a8,8,0,0,1,0,16Z"/><path class="cls-4" d="M336.05,306h-40a8,8,0,1,1,0-16h40a8,8,0,0,1,0,16Z"/><path class="cls-4" d="M432.05,306h-64a8,8,0,1,1,0-16h64a8,8,0,0,1,0,16Z"/><path class="cls-4" d="M84,273.5a8.46,8.46,0,0,1-5.7-2.3,8,8,0,0,1,0-11.3l75.2-75.1a8,8,0,1,1,11.3,11.3l-75.2,75.1A7.87,7.87,0,0,1,84,273.5Z"/><path class="cls-4" d="M101,290.4a8.46,8.46,0,0,1-5.7-2.3,8,8,0,0,1,0-11.3l75.4-75.4A8,8,0,0,1,182,212.7l-75.4,75.4A7.87,7.87,0,0,1,101,290.4Z"/><path class="cls-4" d="M181.35,176.1a8.46,8.46,0,0,1-5.7-2.3,8,8,0,0,1,0-11.3l17.6-17.6a8,8,0,0,1,11.3,11.3l-17.5,17.5A8,8,0,0,1,181.35,176.1Z"/><path class="cls-4" d="M198.35,193.1a8.46,8.46,0,0,1-5.7-2.3,8,8,0,0,1,0-11.3l17.6-17.6a8,8,0,0,1,11.3,11.3L204,190.8A8,8,0,0,1,198.35,193.1Z"/><path class="cls-4" d="M216,254.6a8.46,8.46,0,0,1-5.7-2.3l-96.2-96.2a8,8,0,1,1,11.3-11.3l96.2,96.2a8,8,0,0,1,0,11.3A7.87,7.87,0,0,1,216,254.6Z"/><path class="cls-4" d="M216,254.6a3.75,3.75,0,0,1-1.1-.1,8,8,0,0,1-6.8-9c.2-1.4,4.6-36.2-23.2-63.9-28-28-63.6-23.2-63.9-23.2a8.08,8.08,0,0,1-9.1-6.8,7.93,7.93,0,0,1,6.8-9c1.8-.3,43.9-5.8,77.5,27.7s28,75.7,27.7,77.5A8,8,0,0,1,216,254.6Z"/><path class="cls-4" d="M216,175.4a8.46,8.46,0,0,1-5.7-2.3l-17-17a8,8,0,1,1,11.3-11.3l17,17a8,8,0,0,1,0,11.3A7.47,7.47,0,0,1,216,175.4Z"/><path class="cls-4" d="M92.45,293.9a19.83,19.83,0,0,1-14.1-5.8,20,20,0,0,1,0-28.3,8,8,0,0,1,11.3,11.3,4,4,0,0,0,0,5.7,4.07,4.07,0,0,0,5.7,0,8,8,0,0,1,11.3,11.3A19.89,19.89,0,0,1,92.45,293.9Z"/></svg>