# Blender v2.90.1 OBJ File: 'Coin2.blend'
# www.blender.org
mtllib dimension/Coin.mtl
o Cylinder
v 0.000000 1.000000 -0.100000
v 0.000000 1.000000 0.100000
v 0.195090 0.980785 -0.100000
v 0.195090 0.980785 0.100000
v 0.382683 0.923880 -0.100000
v 0.382683 0.923880 0.100000
v 0.555570 0.831470 -0.100000
v 0.555570 0.831470 0.100000
v 0.707107 0.707107 -0.100000
v 0.707107 0.707107 0.100000
v 0.831470 0.555570 -0.100000
v 0.831470 0.555570 0.100000
v 0.923880 0.382683 -0.100000
v 0.923880 0.382683 0.100000
v 0.980785 0.195090 -0.100000
v 0.980785 0.195090 0.100000
v 1.000000 0.000000 -0.100000
v 1.000000 0.000000 0.100000
v 0.980785 -0.195090 -0.100000
v 0.980785 -0.195090 0.100000
v 0.923880 -0.382683 -0.100000
v 0.923880 -0.382683 0.100000
v 0.831470 -0.555570 -0.100000
v 0.831470 -0.555570 0.100000
v 0.707107 -0.707107 -0.100000
v 0.707107 -0.707107 0.100000
v 0.555570 -0.831470 -0.100000
v 0.555570 -0.831470 0.100000
v 0.382683 -0.923880 -0.100000
v 0.382683 -0.923880 0.100000
v 0.195090 -0.980785 -0.100000
v 0.195090 -0.980785 0.100000
v -0.000000 -1.000000 -0.100000
v -0.000000 -1.000000 0.100000
v -0.195091 -0.980785 -0.100000
v -0.195091 -0.980785 0.100000
v -0.382684 -0.923879 -0.100000
v -0.382684 -0.923879 0.100000
v -0.555571 -0.831469 -0.100000
v -0.555571 -0.831469 0.100000
v -0.707107 -0.707106 -0.100000
v -0.707107 -0.707106 0.100000
v -0.831470 -0.555570 -0.100000
v -0.831470 -0.555570 0.100000
v -0.923880 -0.382683 -0.100000
v -0.923880 -0.382683 0.100000
v -0.980785 -0.195089 -0.100000
v -0.980785 -0.195089 0.100000
v -1.000000 0.000001 -0.100000
v -1.000000 0.000001 0.100000
v -0.980785 0.195091 -0.100000
v -0.980785 0.195091 0.100000
v -0.923879 0.382684 -0.100000
v -0.923879 0.382684 0.100000
v -0.831469 0.555571 -0.100000
v -0.831469 0.555571 0.100000
v -0.707106 0.707108 -0.100000
v -0.707106 0.707108 0.100000
v -0.555569 0.831470 -0.100000
v -0.555569 0.831470 0.100000
v -0.382682 0.923880 -0.100000
v -0.382682 0.923880 0.100000
v -0.195089 0.980786 -0.100000
v -0.195089 0.980786 0.100000
vt 0.015858 0.973324
vt 0.015858 0.900368
vt 0.020418 0.900368
vt 0.020418 0.973324
vt 0.024977 0.900368
vt 0.024977 0.973324
vt 0.029537 0.900368
vt 0.029537 0.973324
vt 0.034097 0.900368
vt 0.034097 0.973324
vt 0.038657 0.900368
vt 0.038657 0.973324
vt 0.043216 0.900368
vt 0.043216 0.973324
vt 0.047776 0.900368
vt 0.047776 0.973324
vt 0.052336 0.900368
vt 0.052336 0.973324
vt 0.056895 0.900368
vt 0.056895 0.973324
vt 0.061455 0.900368
vt 0.061455 0.973324
vt 0.066015 0.900368
vt 0.066015 0.973324
vt 0.070574 0.900368
vt 0.070574 0.973324
vt 0.075134 0.900368
vt 0.075134 0.973324
vt 0.079694 0.900368
vt 0.079694 0.973324
vt 0.084254 0.900368
vt 0.084254 0.973324
vt 0.088813 0.900368
vt 0.088813 0.973324
vt 0.093373 0.900368
vt 0.093373 0.973324
vt 0.097933 0.900368
vt 0.097933 0.973324
vt 0.102492 0.900368
vt 0.102492 0.973324
vt 0.107052 0.900368
vt 0.107052 0.973324
vt 0.111612 0.900368
vt 0.111612 0.973324
vt 0.116172 0.900368
vt 0.116172 0.973324
vt 0.120731 0.900368
vt 0.120731 0.973324
vt 0.125291 0.900368
vt 0.125291 0.973324
vt 0.129851 0.900368
vt 0.129851 0.973324
vt 0.134410 0.900368
vt 0.134410 0.973324
vt 0.138970 0.900368
vt 0.138970 0.973324
vt 0.143530 0.900368
vt 0.143530 0.973324
vt 0.148090 0.900368
vt 0.148090 0.973324
vt 0.152649 0.900368
vt 0.152649 0.973324
vt 0.412585 0.959955
vt 0.507124 0.969267
vt 0.601662 0.959955
vt 0.692567 0.932380
vt 0.776346 0.887599
vt 0.849779 0.827335
vt 0.910044 0.753902
vt 0.954825 0.670123
vt 0.982401 0.579218
vt 0.991712 0.484679
vt 0.982401 0.390140
vt 0.954825 0.299235
vt 0.910044 0.215456
vt 0.849780 0.142023
vt 0.776347 0.081759
vt 0.692568 0.036978
vt 0.601663 0.009402
vt 0.507124 0.000091
vt 0.412586 0.009402
vt 0.321680 0.036978
vt 0.237901 0.081758
vt 0.164468 0.142023
vt 0.104204 0.215456
vt 0.059423 0.299235
vt 0.031847 0.390140
vt 0.022536 0.484679
vt 0.031847 0.579217
vt 0.059423 0.670122
vt 0.104204 0.753901
vt 0.164468 0.827334
vt 0.237901 0.887599
vt 0.321680 0.932379
vt 0.157209 0.900368
vt 0.157209 0.973324
vt 0.161769 0.900368
vt 0.161769 0.973324
vt 0.505990 0.969760
vt 0.600333 0.960468
vt 0.691051 0.932949
vt 0.774656 0.888261
vt 0.847937 0.828120
vt 0.908078 0.754839
vt 0.952766 0.671234
vt 0.980285 0.580516
vt 0.989577 0.486173
vt 0.980285 0.391830
vt 0.952766 0.301113
vt 0.908078 0.217507
vt 0.847937 0.144226
vt 0.774656 0.084086
vt 0.691050 0.039398
vt 0.600333 0.011879
vt 0.505990 0.002587
vt 0.411647 0.011879
vt 0.320929 0.039398
vt 0.237324 0.084086
vt 0.164043 0.144226
vt 0.103903 0.217507
vt 0.059214 0.301113
vt 0.031696 0.391831
vt 0.022404 0.486174
vt 0.031696 0.580517
vt 0.059215 0.671234
vt 0.103903 0.754840
vt 0.164043 0.828121
vt 0.237324 0.888261
vt 0.320930 0.932949
vt 0.411648 0.960468
vn 0.0980 0.9952 0.0000
vn 0.2903 0.9569 0.0000
vn 0.4714 0.8819 0.0000
vn 0.6344 0.7730 0.0000
vn 0.7730 0.6344 0.0000
vn 0.8819 0.4714 0.0000
vn 0.9569 0.2903 0.0000
vn 0.9952 0.0980 0.0000
vn 0.9952 -0.0980 0.0000
vn 0.9569 -0.2903 0.0000
vn 0.8819 -0.4714 0.0000
vn 0.7730 -0.6344 0.0000
vn 0.6344 -0.7730 0.0000
vn 0.4714 -0.8819 0.0000
vn 0.2903 -0.9569 0.0000
vn 0.0980 -0.9952 0.0000
vn -0.0980 -0.9952 0.0000
vn -0.2903 -0.9569 0.0000
vn -0.4714 -0.8819 0.0000
vn -0.6344 -0.7730 0.0000
vn -0.7730 -0.6344 0.0000
vn -0.8819 -0.4714 0.0000
vn -0.9569 -0.2903 0.0000
vn -0.9952 -0.0980 0.0000
vn -0.9952 0.0980 0.0000
vn -0.9569 0.2903 0.0000
vn -0.8819 0.4714 0.0000
vn -0.7730 0.6344 0.0000
vn -0.6344 0.7730 0.0000
vn -0.4714 0.8819 0.0000
vn -0.0000 -0.0000 1.0000
vn -0.2903 0.9569 0.0000
vn -0.0980 0.9952 0.0000
vn -0.0000 0.0000 -1.0000
usemtl Material.001
s off
f 1/1/1 2/2/1 4/3/1 3/4/1
f 3/4/2 4/3/2 6/5/2 5/6/2
f 5/6/3 6/5/3 8/7/3 7/8/3
f 7/8/4 8/7/4 10/9/4 9/10/4
f 9/10/5 10/9/5 12/11/5 11/12/5
f 11/12/6 12/11/6 14/13/6 13/14/6
f 13/14/7 14/13/7 16/15/7 15/16/7
f 15/16/8 16/15/8 18/17/8 17/18/8
f 17/18/9 18/17/9 20/19/9 19/20/9
f 19/20/10 20/19/10 22/21/10 21/22/10
f 21/22/11 22/21/11 24/23/11 23/24/11
f 23/24/12 24/23/12 26/25/12 25/26/12
f 25/26/13 26/25/13 28/27/13 27/28/13
f 27/28/14 28/27/14 30/29/14 29/30/14
f 29/30/15 30/29/15 32/31/15 31/32/15
f 31/32/16 32/31/16 34/33/16 33/34/16
f 33/34/17 34/33/17 36/35/17 35/36/17
f 35/36/18 36/35/18 38/37/18 37/38/18
f 37/38/19 38/37/19 40/39/19 39/40/19
f 39/40/20 40/39/20 42/41/20 41/42/20
f 41/42/21 42/41/21 44/43/21 43/44/21
f 43/44/22 44/43/22 46/45/22 45/46/22
f 45/46/23 46/45/23 48/47/23 47/48/23
f 47/48/24 48/47/24 50/49/24 49/50/24
f 49/50/25 50/49/25 52/51/25 51/52/25
f 51/52/26 52/51/26 54/53/26 53/54/26
f 53/54/27 54/53/27 56/55/27 55/56/27
f 55/56/28 56/55/28 58/57/28 57/58/28
f 57/58/29 58/57/29 60/59/29 59/60/29
f 59/60/30 60/59/30 62/61/30 61/62/30
f 4/63/31 2/64/31 64/65/31 62/66/31 60/67/31 58/68/31 56/69/31 54/70/31 52/71/31 50/72/31 48/73/31 46/74/31 44/75/31 42/76/31 40/77/31 38/78/31 36/79/31 34/80/31 32/81/31 30/82/31 28/83/31 26/84/31 24/85/31 22/86/31 20/87/31 18/88/31 16/89/31 14/90/31 12/91/31 10/92/31 8/93/31 6/94/31
f 61/62/32 62/61/32 64/95/32 63/96/32
f 63/96/33 64/95/33 2/97/33 1/98/33
f 1/99/34 3/100/34 5/101/34 7/102/34 9/103/34 11/104/34 13/105/34 15/106/34 17/107/34 19/108/34 21/109/34 23/110/34 25/111/34 27/112/34 29/113/34 31/114/34 33/115/34 35/116/34 37/117/34 39/118/34 41/119/34 43/120/34 45/121/34 47/122/34 49/123/34 51/124/34 53/125/34 55/126/34 57/127/34 59/128/34 61/129/34 63/130/34
