# Blender v2.90.1 OBJ File: 'Kiosk3.1.blend'
# www.blender.org
mtllib dimension/Kiosk2_LuckyDraw.mtl
o Kiosk_Cube.003
v 1.118482 2.007426 1.000000
v 1.000000 2.007426 -1.000000
v 1.261521 2.351804 1.261521
v -1.118483 0.007426 1.000000
v -1.118483 2.007426 1.000000
v -1.000000 2.007426 -1.000000
v -1.000000 0.007426 -1.000000
v 1.000000 0.007426 -1.000000
v 1.118483 0.007426 1.000000
v 1.015686 4.226347 -1.015686
v 1.261520 4.021393 1.261522
v -1.261521 2.351804 1.261521
v -1.261522 4.021393 1.261522
v 0.769852 4.431301 0.769854
v -0.769854 4.431301 0.769854
v 1.158963 3.996313 1.261522
v 1.158963 2.376884 1.261521
v -1.015688 4.226347 -1.015686
v -1.158964 3.996313 1.261522
v -1.158964 2.376883 1.261521
v -1.158964 2.819367 1.209852
v -1.158964 3.996313 1.209852
v 1.158963 2.376884 1.209851
v -1.158964 2.376883 1.209851
v 1.158963 3.996313 1.209852
v 1.158963 2.789238 1.209852
v 0.327770 2.177581 0.980090
v 0.327770 2.312053 0.978170
v 0.327770 2.309101 0.771393
v 0.327770 2.174629 0.773313
v -0.327771 2.174629 0.773313
v -0.327771 2.317089 0.771279
v -0.327771 2.320041 0.978056
v -0.327771 2.177581 0.980090
v -0.496899 2.612808 1.209852
v -0.496899 2.377227 1.209851
v -0.496899 2.377227 1.235813
v -0.496899 2.612808 1.235813
v 0.473110 2.389907 1.204156
v 0.473110 2.584027 1.204157
v 0.473110 2.570181 1.129574
v 0.473110 2.382397 1.178762
v -0.473111 2.595558 1.204157
v -0.473111 2.581336 1.126652
v -0.473111 2.389907 1.204156
v -0.473111 2.382397 1.178762
v -0.473111 2.389907 1.235813
v -0.473111 2.595558 1.235813
v -0.473111 2.518600 1.016551
v 0.473110 2.509594 1.023752
v 0.496898 2.599890 1.209852
v 0.496898 2.599890 1.235813
v 0.496898 2.377227 1.209851
v 0.496898 2.377227 1.235813
v 0.473110 2.584027 1.235813
v 0.473110 2.389907 1.235813
v -0.473111 2.357980 1.144978
v -0.327771 2.272869 1.096206
v -0.327771 2.368582 0.990669
v 0.473110 2.357980 1.144978
v 0.327770 2.272869 1.096206
v 0.327770 2.363215 0.996587
vt 0.000000 0.000000
vt 0.000000 0.000000
vt 0.000000 0.000000
vt 0.000000 0.000000
vt 0.126184 0.247112
vt 0.070516 0.247112
vt 0.133516 0.208286
vt 0.141121 0.469724
vt 0.140998 0.247083
vt 0.196640 0.247083
vt 0.196763 0.469724
vt 0.000463 0.916079
vt 0.000451 0.694130
vt 0.056088 0.694129
vt 0.056100 0.916079
vt 0.187370 0.763996
vt 0.243007 0.750797
vt 0.243007 1.000000
vt 0.187370 0.986801
vt 0.003991 0.448039
vt 0.003991 0.225455
vt 0.066220 0.225438
vt 0.066220 0.448021
vt 0.070423 0.469788
vt 0.126091 0.469788
vt 0.070187 0.000000
vt 0.133593 0.022398
vt 0.133696 0.208203
vt 0.000000 0.185831
vt 0.070187 0.185812
vt 0.250000 0.469724
vt 0.250000 0.750797
vt 0.237347 0.695977
vt 0.237347 0.524450
vt 0.000000 0.000020
vt 0.002853 0.002810
vt 0.002853 0.183039
vt 0.000000 0.448039
vt 0.056510 0.448039
vt 0.133593 0.022343
vt 0.196940 0.000000
vt 0.208816 0.711614
vt 0.203417 0.505860
vt 0.210563 0.258237
vt 0.210563 0.438541
vt 0.209126 0.389274
vt 0.209126 0.258235
vt 0.070187 0.000000
vt 0.067334 0.183021
vt 0.067334 0.002792
vt 0.133593 0.728011
vt 0.133593 0.986233
vt 0.132161 0.986233
vt 0.132161 0.728010
vt 0.133593 0.469788
vt 0.133593 0.728010
vt 0.132156 0.728010
vt 0.132156 0.469788
vt 0.210563 0.438512
vt 0.212001 0.392608
vt 0.212001 0.438512
vt 0.209126 0.438539
vt 0.210563 0.258235
vt 0.212001 0.258235
vt 0.067752 0.685107
vt 0.067752 0.663497
vt 0.067752 0.663497
vt 0.067752 0.685107
vt 0.209126 0.258237
vt 0.209126 0.363648
vt 0.203731 0.363646
vt 0.203411 0.258235
vt 0.069307 0.658864
vt 0.069307 0.681761
vt 0.069307 0.681761
vt 0.069307 0.658864
vt 0.069310 0.553452
vt 0.069310 0.658864
vt 0.069310 0.658864
vt 0.069310 0.553452
vt 0.068474 0.663497
vt 0.068474 0.689417
vt 0.067752 0.689417
vt 0.067752 0.663497
vt 0.067752 0.685107
vt 0.067752 0.663497
vt 0.067752 0.663497
vt 0.067752 0.685107
vt 0.069307 0.448039
vt 0.069307 0.553452
vt 0.069307 0.553452
vt 0.069307 0.448039
vt 0.069310 0.553452
vt 0.069310 0.658864
vt 0.069310 0.658864
vt 0.069310 0.553452
vt 0.196940 0.258235
vt 0.203411 0.258237
vt 0.203134 0.260887
vt 0.197419 0.260885
vt 0.069307 0.553452
vt 0.069307 0.448039
vt 0.212723 0.368951
vt 0.212723 0.258238
vt 0.213443 0.258235
vt 0.213443 0.368948
vt 0.068474 0.687983
vt 0.068474 0.663497
vt 0.069197 0.663498
vt 0.069197 0.687984
vt 0.070187 0.448039
vt 0.070187 0.553452
vt 0.203411 0.368948
vt 0.203134 0.366298
vt 0.197299 0.368947
vt 0.197740 0.366297
vt 0.069307 0.658864
vt 0.069307 0.681761
vt 0.069307 0.681761
vt 0.069307 0.658864
vt 0.066872 0.685107
vt 0.066872 0.663497
vt 0.070187 0.658865
vt 0.070187 0.681762
vt 0.070187 0.553453
vt 0.070187 0.658864
vt 0.069307 0.658864
vt 0.069307 0.681761
vt 0.069307 0.681761
vt 0.069307 0.658864
vt 0.069310 0.658864
vt 0.069310 0.553452
vt 0.067752 0.663497
vt 0.067752 0.685107
vt 0.069310 0.658864
vt 0.069310 0.553452
vt 0.067752 0.663497
vt 0.067752 0.685107
vt 0.069307 0.553452
vt 0.069307 0.448039
vt 0.069307 0.553452
vt 0.069307 0.448039
vn 0.0000 0.9935 -0.1140
vn 0.9363 -0.3468 -0.0555
vn -0.9982 0.0000 -0.0591
vn 0.0000 0.0000 -1.0000
vn 0.0000 -1.0000 -0.0000
vn 0.0000 -0.0000 1.0000
vn 0.9982 0.0000 -0.0591
vn 1.0000 0.0000 0.0000
vn 0.9005 0.4190 0.1161
vn 0.9098 0.3977 -0.1188
vn -0.9363 -0.3468 -0.0555
vn 0.0000 -0.6048 0.7964
vn 0.0000 0.7681 0.6404
vn 0.0555 0.0003 0.9985
vn -0.0380 0.0408 0.9984
vn -0.0151 -0.0537 0.9984
vn -0.0481 0.0277 0.9985
vn -1.0000 -0.0000 -0.0000
vn -0.9098 0.3977 -0.1188
vn -0.9005 0.4190 0.1161
vn 0.4344 0.8293 0.3514
vn 0.2014 0.9787 -0.0389
vn 0.6404 0.7681 0.0000
vn -0.2014 0.9787 -0.0389
vn -0.4344 0.8293 0.3514
vn -0.6404 0.7681 -0.0000
vn 0.6929 -0.7203 0.0317
vn 0.7279 0.6854 0.0175
vn 0.9985 0.0480 -0.0279
vn 0.7203 -0.6930 -0.0317
vn -0.0557 -0.0020 0.9984
vn 0.0390 -0.0394 0.9985
vn 0.0145 0.0536 0.9985
vn 0.0486 -0.0273 0.9984
vn -0.6943 0.7190 0.0300
vn -0.7198 0.6935 -0.0320
vn 0.6840 0.7292 -0.0186
vn -0.7291 -0.6842 0.0193
vn -0.6842 -0.7291 -0.0193
vn -0.9984 -0.0476 -0.0290
vn -0.9985 0.0011 0.0555
vn -0.8595 -0.4163 0.2966
vn -0.5759 -0.5745 0.5816
vn -0.9985 -0.0555 0.0011
vn -0.0000 0.0143 0.9999
vn -0.5759 -0.5745 0.5817
vn 0.5695 -0.5820 0.5804
vn 0.8594 -0.4149 0.2988
vn 0.9985 -0.0400 -0.0385
vn 0.9985 0.0385 -0.0400
vn 0.0390 0.9989 0.0252
vn 0.0555 0.9984 -0.0145
vn -0.0003 0.9976 -0.0697
vn -0.0394 0.9989 0.0248
vn -0.6550 -0.5377 0.5309
vn -0.6600 -0.7504 -0.0372
vn -0.7504 -0.6600 0.0372
vn -0.9998 -0.0000 -0.0185
vn -0.7115 0.6966 -0.0924
vn -0.6907 -0.7212 0.0524
vn -0.6660 -0.7011 0.2546
vn -0.7500 0.6115 -0.2521
vn 0.6822 -0.7292 0.0532
vn 0.6765 -0.6916 0.2529
vn 0.7693 0.6323 -0.0915
vn 0.7500 0.6115 -0.2521
vn 0.0000 -0.0185 0.9998
vn 0.0515 -0.0207 0.9985
vn 0.0361 0.0421 0.9985
vn -0.0150 0.0109 0.9998
vn 0.6545 -0.2920 0.6974
vn -0.6512 -0.2807 0.7051
vn -0.5214 0.6632 0.5369
vn 0.5394 0.6480 0.5377
vn 0.0315 0.9995 0.0000
vn 0.0130 0.9997 -0.0186
vn 0.7315 -0.6789 -0.0639
vn 0.6564 -0.5369 0.5299
vn 0.9998 -0.0186 -0.0000
vn 0.6789 -0.7315 0.0639
vn -0.7201 -0.6939 0.0000
vn 0.6940 -0.7200 -0.0000
vn 0.0313 -0.0458 0.9985
vn 0.0415 0.0369 0.9985
vn -0.0198 0.0518 0.9985
vn -0.0551 0.0066 0.9985
vn -0.0185 0.0002 0.9998
vn 0.0150 -0.0109 0.9998
vn 0.0185 -0.0002 0.9998
vn 0.0154 0.0103 0.9998
vn 0.0548 -0.0087 0.9985
vn -0.0154 -0.0103 0.9998
vn 0.0000 -0.0186 0.9998
vn -0.0175 -0.0526 0.9985
vn -0.6935 0.7198 0.0320
vn 0.7292 0.6840 0.0186
vn 0.7454 0.6573 -0.1115
vn 0.4578 0.7121 -0.5324
vn 0.3972 0.0472 0.9165
vn -0.7463 0.6585 -0.0973
vn 0.4624 0.6934 -0.5527
vn 0.8594 -0.4149 0.2989
vn -0.5310 0.6890 -0.4933
vn -0.4235 0.0185 0.9057
vn -0.5025 0.6423 -0.5787
usemtl Base.001
s off
f 15/1/1 14/2/1 10/3/1 18/4/1
s 1
f 1/5/2 2/6/2 3/7/2
f 4/8/3 5/9/3 6/10/3 7/11/3
f 7/12/4 6/13/4 2/14/4 8/15/4
f 8/16/5 9/17/5 4/18/5 7/19/5
f 9/20/6 1/21/6 5/22/6 4/23/6
f 8/24/7 2/6/7 1/5/7 9/25/7
f 3/7/8 2/6/8 10/26/9 11/27/10
f 6/10/11 5/9/11 12/28/11
f 5/22/12 1/21/12 3/29/12 12/30/12
f 13/31/13 11/32/13 14/33/13 15/34/13
f 3/29/14 11/35/15 16/36/16 17/37/17
f 2/14/4 6/13/4 18/38/4 10/39/4
f 6/10/18 12/28/18 13/40/19 18/41/20
f 11/32/21 10/42/22 14/33/23
f 18/43/24 13/31/25 15/34/26
f 19/44/27 20/45/28 21/46/29 22/47/30
f 13/48/31 12/30/32 20/49/33 19/50/34
f 11/35/15 13/48/31 19/50/34 16/36/16
f 12/30/32 3/29/14 17/37/17 20/49/33
f 20/51/28 17/52/35 23/53/36 24/54/37
f 16/55/38 19/56/27 22/57/30 25/58/39
f 17/59/35 26/60/40 23/61/36
f 21/46/29 20/45/28 24/62/37
f 26/60/40 17/59/35 16/63/38 25/64/39
usemtl Slot.002
s off
f 27/65/41 28/66/42 29/67/43 30/68/44
f 31/69/45 30/70/45 29/71/46 32/72/47
f 33/73/48 34/74/49 31/75/50 32/76/47
f 34/77/51 27/78/52 30/79/53 31/80/54
s 1
f 35/81/55 36/82/56 37/83/57 38/84/58
f 39/85/59 40/86/60 41/87/61 42/88/62
f 40/89/60 43/90/63 44/91/64 41/92/61
f 45/93/65 39/94/59 42/95/62 46/96/66
f 38/97/67 37/98/68 47/99/69 48/100/70
f 41/92/61 44/91/64 49/101/71 50/102/72
f 51/103/73 35/104/74 38/105/75 52/106/76
f 53/107/77 51/108/78 52/109/79 54/110/80
f 55/111/81 48/112/82 43/90/63 40/89/60
f 37/98/83 54/113/84 56/114/85 47/99/86
f 52/115/87 38/97/88 48/100/89 55/116/90
f 54/113/91 52/115/92 55/116/93 56/114/94
f 43/117/63 45/118/65 46/119/66 44/120/64
f 56/121/95 55/122/81 40/86/60 39/85/59
f 48/123/82 47/124/96 45/118/65 43/117/63
f 47/125/96 56/126/95 39/94/59 45/93/65
f 49/127/71 57/128/97 58/129/98 59/130/99
f 44/120/64 46/119/66 57/128/97 49/127/71
f 46/96/66 42/95/62 60/131/100 57/132/97
f 42/88/62 41/87/61 50/133/72 60/134/100
f 59/130/99 58/129/98 34/74/101 33/73/102
f 57/132/97 60/131/100 61/135/103 58/136/98
f 60/134/100 50/133/72 62/137/104 61/138/103
f 50/102/72 49/101/71 59/139/99 62/140/104
f 58/136/98 61/135/103 27/78/105 34/77/101
f 61/138/103 62/137/104 28/66/42 27/65/105
f 62/140/104 59/139/99 33/141/102 28/142/42
o LuckyDraw_Cube.004
v 0.103855 4.431301 0.769854
v -0.002905 4.431301 0.769854
v -0.107659 4.431301 0.769854
v 0.910198 4.314294 -0.249502
v -0.936754 4.292154 -0.442377
v 0.932191 4.295958 -0.409247
v 0.772056 4.295632 -0.412086
v -0.789174 4.292455 -0.439761
v -0.915225 4.310103 -0.286007
v -0.781979 4.310301 -0.284283
v -0.108484 4.415688 0.633140
v -0.001846 4.415673 0.633140
v -0.107664 4.971423 0.769066
v 0.103850 4.971423 0.769066
v 1.591328 4.971423 0.772191
v -1.594943 4.971422 0.772191
v 0.103855 4.415965 0.633140
v 0.777357 4.313835 -0.253500
v -0.915225 6.300601 0.765751
v -0.936754 6.531213 0.765751
v -0.108503 6.655623 0.629873
v -0.107678 6.671237 0.766587
v 0.103836 6.671237 0.766587
v 0.103836 6.655900 0.629873
v 0.910198 6.246764 0.765751
v 0.777357 6.252661 0.765751
v -0.108489 4.955810 0.632353
v 0.103850 4.956086 0.632353
v -0.789174 6.527355 0.765751
v -0.781979 6.298059 0.765751
v 0.932191 6.482352 0.765751
v 0.772056 6.486539 0.765751
v -1.595156 6.906591 0.769712
v 1.591115 6.906592 0.769712
v 1.591115 6.906708 0.848823
v 1.591328 4.971539 0.851302
v -1.594943 4.971538 0.851302
v -1.595156 6.906707 0.848823
vt 0.247802 0.165686
vt 0.247802 0.189249
vt 0.247715 0.354958
vt 0.247715 0.000000
vt 0.131522 0.753051
vt 0.127921 0.743099
vt 0.128466 0.492459
vt 0.131522 0.469788
vt 0.196940 0.429057
vt 0.200766 0.429149
vt 0.200766 0.452712
vt 0.196940 0.452712
vt 0.246703 0.971633
vt 0.243007 0.971551
vt 0.243007 0.751442
vt 0.246703 0.750797
vt 0.056510 0.636676
vt 0.056510 0.448064
vt 0.062417 0.448039
vt 0.062417 0.636651
vt 0.062417 0.696583
vt 0.069868 0.893599
vt 0.066064 0.891888
vt 0.066064 0.702663
vt 0.069868 0.704374
vt 0.196940 0.368950
vt 0.202824 0.429055
vt 0.196940 0.429057
vt 0.127619 0.919305
vt 0.123816 0.920985
vt 0.123816 0.731731
vt 0.127619 0.730051
vt 0.127921 0.729974
vt 0.123816 0.730051
vt 0.123816 0.469788
vt 0.127921 0.470198
vt 0.241945 0.009998
vt 0.245515 0.000000
vt 0.245515 0.282712
vt 0.242488 0.260275
vt 0.131628 0.979798
vt 0.127921 0.979757
vt 0.127921 0.753322
vt 0.131628 0.753051
vt 0.056510 0.706748
vt 0.060187 0.696612
vt 0.060187 0.972959
vt 0.057080 0.949773
vt 0.066872 0.702580
vt 0.062417 0.702663
vt 0.062417 0.448039
vt 0.066872 0.448484
vt 0.066064 0.979606
vt 0.062417 0.969472
vt 0.062982 0.725611
vt 0.066064 0.702663
vt 0.127619 0.979441
vt 0.123816 0.981121
vt 0.199854 0.368949
vt 0.069868 0.953726
vt 0.066064 0.952015
vt 0.059476 0.696612
vt 0.202824 0.368948
vt 0.056510 0.696608
vt 0.117286 0.659064
vt 0.117286 0.635501
vt 0.123816 0.469788
vt 0.123816 0.824745
vt 0.070187 0.635545
vt 0.070195 0.469859
vt 0.070187 0.659108
vt 0.070195 0.824817
vt 0.069072 0.448040
vt 0.069072 0.663497
vt 0.066872 0.663495
vt 0.066872 0.448039
vt 0.245515 0.354958
vt 0.245515 0.000000
vt 0.247802 0.354958
vt 0.247802 0.000000
vt 0.249995 0.000001
vt 0.249995 0.354959
vt 0.060187 0.912038
vt 0.060187 0.696612
vt 0.062388 0.696613
vt 0.062388 0.912039
vt -0.000189 1.000668
vt 1.000463 0.997674
vt 1.000526 0.001003
vt 0.000262 0.000896
vn 0.0821 -0.9966 0.0058
vn 0.8862 -0.4634 0.0008
vn 0.7001 -0.1489 -0.6983
vn 0.5688 -0.5816 -0.5816
vn -0.3227 0.8479 -0.4206
vn -0.7388 0.1813 0.6491
vn -0.6033 -0.1228 0.7880
vn -0.6369 0.7347 0.2338
vn -0.5331 0.6263 0.5688
vn 0.6081 0.2479 -0.7542
vn -0.2351 -0.4420 -0.8657
vn -0.5926 0.5356 -0.6017
vn -0.4859 0.8497 0.2048
vn 0.7938 0.1109 0.5980
vn 0.5968 -0.1295 0.7919
vn -0.6446 -0.1838 0.7421
vn -0.6484 0.4044 -0.6451
vn -0.2808 -0.0030 -0.9598
vn 0.4817 0.8632 -0.1513
vn -0.2409 0.2515 0.9374
vn 0.2713 0.9046 -0.3288
vn 0.3915 0.8912 0.2290
vn 0.4618 0.8728 0.1578
vn 0.6774 -0.1712 0.7154
vn 0.4020 0.7733 -0.4903
vn 0.6549 0.7184 0.2347
vn -0.0570 0.9444 -0.3239
vn -0.6608 0.7071 0.2516
vn 0.4517 -0.2545 0.8551
vn 0.0000 0.0015 1.0000
vn -0.2264 0.7143 -0.6622
vn -0.1446 0.9464 -0.2887
vn 0.7756 0.4460 -0.4466
vn 0.4434 0.4443 0.7785
vn 0.4536 -0.7666 0.4545
vn 0.6994 -0.6991 0.1488
vn 0.5694 -0.5805 0.5821
vn -0.4556 -0.7641 0.4567
usemtl Base.003
s 1
f 75/143/106 76/144/107 77/145/108 78/146/109
usemtl Frame.003
f 67/147/110 71/148/111 81/149/112 82/150/113
f 83/151/114 84/152/115 85/153/116 86/154/117
f 80/155/118 66/156/119 87/157/120 88/158/121
f 89/159/122 83/160/114 86/161/117 90/162/123
f 79/163/124 89/159/122 90/162/123
f 89/164/122 75/165/106 84/166/115 83/167/114
f 65/168/125 76/169/107 75/170/106
f 76/171/107 90/172/123 86/173/117 85/174/116
f 70/175/126 67/176/110 82/177/113 91/178/127
f 72/179/128 70/180/126 91/181/127 92/182/129
f 71/183/111 72/184/128 92/185/129 81/186/112
f 66/187/119 68/188/130 93/189/131 87/190/120
f 68/191/130 69/192/132 94/193/133 93/194/131
f 69/195/132 80/196/118 88/197/121 94/198/133
f 63/199/134 79/200/124 90/172/123 76/171/107
f 76/169/107 65/168/125 64/201/135
f 73/202/136 65/203/125 75/165/106 89/164/122
f 89/159/122 79/163/124 74/204/137
f 64/201/135 63/205/134 76/169/107
f 74/204/137 73/206/136 89/159/122
usemtl BillboardBack.003
f 85/207/116 84/208/115 95/209/138 96/210/139
f 84/208/115 75/211/106 78/212/109 95/209/138
f 76/213/107 85/207/116 96/210/139 77/214/108
usemtl BillboardSide.003
f 77/215/108 96/216/139 97/217/140 98/218/141
f 78/146/109 77/145/108 98/219/141 99/220/142
f 96/221/139 95/222/138 100/223/143 97/224/140
f 95/225/138 78/226/109 99/227/142 100/228/143
usemtl Billboard.003
f 97/229/140 100/230/143 99/231/142 98/232/141
o Frame_Plane
v -1.158883 2.378616 1.209826
v -0.495161 2.378616 1.209826
v -0.495161 2.611716 1.209826
v 0.494984 2.598739 1.209826
v 0.494984 2.378616 1.209826
v 1.158686 2.378616 1.209826
v 1.158686 3.994718 1.209827
v -1.158883 3.994718 1.209827
vt 0.286379 0.136206
vt 0.286379 0.000000
vt 0.000000 0.000000
vt 1.000000 1.000000
vt 1.000000 0.000000
vt 0.713613 0.144236
vt 0.713613 0.000000
vt 0.000000 1.000000
vn 0.0000 -0.0000 1.0000
usemtl AirdropFrame
s off
f 104/233/144 105/234/144 106/235/144
f 108/236/144 101/237/144 103/238/144
f 101/237/144 102/239/144 103/238/144
f 106/235/144 107/240/144 104/233/144
f 107/240/144 108/236/144 103/238/144
f 104/233/144 107/240/144 103/238/144
